<?xml version="1.0" encoding="UTF-8"?>
<!DOCTYPE svg PUBLIC "-//W3C//DTD SVG 1.1//EN" "http://www.w3.org/Graphics/SVG/1.1/DTD/svg11.dtd">
<!-- Creator: CorelDRAW 2020 (64-Bit) -->
<svg xmlns="http://www.w3.org/2000/svg" xml:space="preserve" width="19.1923mm" height="6.927mm" version="1.1" style="shape-rendering:geometricPrecision; text-rendering:geometricPrecision; image-rendering:optimizeQuality; fill-rule:evenodd; clip-rule:evenodd"
viewBox="0 0 1652.75 596.52"
 xmlns:xlink="http://www.w3.org/1999/xlink"
 xmlns:xodm="http://www.corel.com/coreldraw/odm/2003">
 <defs>
  <style type="text/css">
   <![CDATA[
    .fil0 {fill:#333333}
    .fil1 {fill:white;fill-rule:nonzero}
   ]]>
  </style>
 </defs>
 <g id="Layer_x0020_1">
  <metadata id="CorelCorpID_0Corel-Layer"/>
  <g id="_1798645052864">
   <path class="fil0" d="M1075.36 72.09c63.95,-65.17 162.44,-90.4 253.94,-57.97 152.07,-53.89 323.45,51.46 323.45,234.75 0,140.2 -80.54,210.36 -179.2,288.13 -43.61,34.38 -86.14,59.52 -144.25,59.52 -58.11,0 -100.64,-25.15 -144.24,-59.52 -41.25,-32.52 -79.34,-63.71 -109.69,-99.25 -30.36,35.54 -68.44,66.73 -109.69,99.25 -43.61,34.38 -86.12,59.52 -144.24,59.52 -58.12,0 -100.64,-25.15 -144.25,-59.53 -39.04,-30.78 -75.24,-60.36 -104.74,-93.56 -29.49,33.21 -65.71,62.79 -104.74,93.56 -43.61,34.38 -86.12,59.53 -144.24,59.53 -58.13,0 -100.64,-25.15 -144.25,-59.54 -98.64,-77.78 -179.2,-147.92 -179.2,-288.12 0,-183.29 171.38,-288.64 323.45,-234.75 89.17,-31.6 184.99,-8.44 248.99,53.08 64,-61.52 159.81,-84.68 248.98,-53.07 91.51,-32.43 190,-7.2 253.94,57.97z"/>
   <g>
    <path class="fil1" d="M145.82 248.86c0,86.38 71.4,132.41 123.66,173.62 18.44,14.54 36.2,28.23 53.97,28.23 17.76,0 35.52,-13.69 53.97,-28.23 52.26,-41.21 123.66,-87.23 123.66,-173.62 0,-86.37 -97.71,-147.64 -177.63,-64.59 -79.93,-83.05 -177.63,-21.79 -177.63,64.59z"/>
    <path class="fil1" d="M643.8 248.86c0,86.38 71.4,132.41 123.66,173.62 18.44,14.54 36.2,28.22 53.97,28.22 17.77,0 35.52,-13.68 53.97,-28.22 52.26,-41.21 123.66,-87.23 123.66,-173.62 0,-86.37 -97.7,-147.64 -177.63,-64.59 -79.93,-83.04 -177.63,-21.78 -177.63,64.59z"/>
    <path class="fil1" d="M1151.68 248.86c0,86.38 71.39,132.41 123.65,173.62 18.45,14.54 36.21,28.22 53.97,28.22 17.77,0 35.53,-13.68 53.98,-28.22 52.26,-41.21 123.65,-87.23 123.65,-173.62 0,-86.37 -97.7,-147.64 -177.63,-64.59 -79.92,-83.04 -177.62,-21.78 -177.62,64.59z"/>
   </g>
  </g>
 </g>
</svg>
