<?xml version="1.0" encoding="UTF-8"?>
<!DOCTYPE svg PUBLIC "-//W3C//DTD SVG 1.1//EN" "http://www.w3.org/Graphics/SVG/1.1/DTD/svg11.dtd">
<!-- Creator: CorelDRAW 2020 (64-Bit) -->
<svg xmlns="http://www.w3.org/2000/svg" xml:space="preserve" width="2.715mm" height="2.2568mm" version="1.1" style="shape-rendering:geometricPrecision; text-rendering:geometricPrecision; image-rendering:optimizeQuality; fill-rule:evenodd; clip-rule:evenodd"
viewBox="0 0 8.22 6.83"
 xmlns:xlink="http://www.w3.org/1999/xlink"
 xmlns:xodm="http://www.corel.com/coreldraw/odm/2003">
 <defs>
  <style type="text/css">
   <![CDATA[
    .fil0 {fill:#FFFF66;fill-rule:nonzero}
   ]]>
  </style>
 </defs>
 <g id="Layer_x0020_1">
  <metadata id="CorelCorpID_0Corel-Layer"/>
  <g id="_1798557205264">
   <path class="fil0" d="M1.39 6.83l1.06 0c0.78,0 1.39,-0.61 1.39,-1.39l0 -1.07c0,-0.78 -0.61,-1.39 -1.39,-1.39l-1.37 0c0.06,-1.29 0.36,-1.49 1.22,-1.99 0.26,-0.15 0.34,-0.48 0.19,-0.74 -0.1,-0.17 -0.28,-0.26 -0.46,-0.26 -0.09,0 -0.19,0.02 -0.27,0.07 -1.28,0.76 -1.76,1.25 -1.76,3.45l0 1.91c0,0.78 0.62,1.4 1.39,1.4z"/>
   <path class="fil0" d="M5.77 6.83l1.06 0c0.78,0 1.39,-0.61 1.39,-1.39l0 -1.07c0,-0.78 -0.61,-1.39 -1.39,-1.39l-1.37 0c0.06,-1.29 0.36,-1.49 1.22,-1.99 0.26,-0.15 0.34,-0.48 0.19,-0.74 -0.1,-0.17 -0.28,-0.26 -0.46,-0.26 -0.09,0 -0.19,0.02 -0.27,0.07 -1.28,0.76 -1.76,1.25 -1.76,3.45l0 1.91c0.01,0.78 0.63,1.4 1.39,1.4z"/>
  </g>
 </g>
</svg>
