<?xml version="1.0" encoding="UTF-8"?>
<!DOCTYPE svg PUBLIC "-//W3C//DTD SVG 1.1//EN" "http://www.w3.org/Graphics/SVG/1.1/DTD/svg11.dtd">
<!-- Creator: CorelDRAW 2020 (64-Bit) -->
<svg xmlns="http://www.w3.org/2000/svg" xml:space="preserve" width="1.9389mm" height="1.9389mm" version="1.1" style="shape-rendering:geometricPrecision; text-rendering:geometricPrecision; image-rendering:optimizeQuality; fill-rule:evenodd; clip-rule:evenodd"
viewBox="0 0 4.23 4.23"
 xmlns:xlink="http://www.w3.org/1999/xlink"
 xmlns:xodm="http://www.corel.com/coreldraw/odm/2003">
 <defs>
  <style type="text/css">
   <![CDATA[
    .fil1 {fill:white}
    .fil0 {fill:white;fill-opacity:0.960784}
   ]]>
  </style>
 </defs>
 <g id="Layer_x0020_1">
  <metadata id="CorelCorpID_0Corel-Layer"/>
  <g id="_1866661562576">
   <path class="fil0" d="M0.16 2.6c0.09,0 0.16,0.07 0.16,0.16 0,0.31 0,0.53 0.02,0.69 0.02,0.16 0.06,0.24 0.12,0.3 0.06,0.06 0.14,0.1 0.3,0.12 0.16,0.02 0.38,0.02 0.69,0.02l1.3 0c0.31,0 0.53,-0 0.69,-0.02 0.16,-0.02 0.24,-0.06 0.3,-0.12 0.06,-0.06 0.1,-0.14 0.12,-0.3 0.02,-0.16 0.02,-0.38 0.02,-0.69 0,-0.09 0.07,-0.16 0.16,-0.16 0.09,0 0.16,0.07 0.16,0.16l0 0.01c0,0.3 0,0.54 -0.03,0.72 -0.03,0.2 -0.08,0.36 -0.21,0.49 -0.13,0.13 -0.29,0.19 -0.49,0.21 -0.19,0.03 -0.43,0.03 -0.72,0.03l-1.32 0c-0.3,0 -0.54,0 -0.72,-0.03 -0.2,-0.03 -0.36,-0.08 -0.49,-0.21 -0.13,-0.13 -0.19,-0.29 -0.21,-0.49 -0.03,-0.19 -0.03,-0.43 -0.03,-0.72 0,-0 0,-0.01 0,-0.01 0,-0.09 0.07,-0.16 0.16,-0.16z"/>
   <path class="fil1" d="M2.11 3.14c0.05,0 0.09,-0.02 0.12,-0.05l0.87 -0.95c0.06,-0.07 0.06,-0.17 -0.01,-0.23 -0.07,-0.06 -0.17,-0.06 -0.23,0.01l-0.58 0.64 0 -2.4c0,-0.09 -0.07,-0.16 -0.16,-0.16 -0.09,0 -0.16,0.07 -0.16,0.16l0 2.4 -0.58 -0.64c-0.06,-0.07 -0.16,-0.07 -0.23,-0.01 -0.07,0.06 -0.07,0.16 -0.01,0.23l0.87 0.95c0.03,0.03 0.07,0.05 0.12,0.05z"/>
  </g>
 </g>
</svg>
