<?xml version="1.0" encoding="UTF-8"?>
<!DOCTYPE svg PUBLIC "-//W3C//DTD SVG 1.1//EN" "http://www.w3.org/Graphics/SVG/1.1/DTD/svg11.dtd">
<!-- Creator: CorelDRAW 2020 (64-Bit) -->
<svg xmlns="http://www.w3.org/2000/svg" xml:space="preserve" width="3.6283mm" height="3.6283mm" version="1.1" style="shape-rendering:geometricPrecision; text-rendering:geometricPrecision; image-rendering:optimizeQuality; fill-rule:evenodd; clip-rule:evenodd"
viewBox="0 0 17.27 17.27"
 xmlns:xlink="http://www.w3.org/1999/xlink"
 xmlns:xodm="http://www.corel.com/coreldraw/odm/2003">
 <defs>
  <style type="text/css">
   <![CDATA[
    .str0 {stroke:white;stroke-width:2.38;stroke-miterlimit:22.9256}
    .str1 {stroke:white;stroke-width:2.38;stroke-linecap:round;stroke-linejoin:round;stroke-miterlimit:22.9256}
    .fil1 {fill:none;fill-rule:nonzero}
    .fil0 {fill:#2CA9BC;fill-rule:nonzero}
   ]]>
  </style>
 </defs>
 <g id="Layer_x0020_1">
  <metadata id="CorelCorpID_0Corel-Layer"/>
  <g id="_1798636663440">
   <path class="fil0 str0" d="M16.08 2.02l0 13.24c0,0.46 -0.37,0.83 -0.83,0.83l-13.24 0c-0.46,0 -0.83,-0.37 -0.83,-0.83l0 -13.24c0,-0.46 0.37,-0.83 0.83,-0.83l13.24 0c0.46,0 0.83,0.37 0.83,0.83z"/>
   <path id="primary" class="fil1 str1" d="M12.77 5.33l-1.65 0c-0.91,0 -1.65,0.74 -1.65,1.65l0 9.1"/>
   <path id="primary-2" class="fil1 str1" d="M6.98 10.29l4.96 0m4.14 4.96l0 -13.24c0,-0.46 -0.37,-0.83 -0.83,-0.83l-13.24 0c-0.46,0 -0.83,0.37 -0.83,0.83l0 13.24c0,0.46 0.37,0.83 0.83,0.83l13.24 0c0.46,0 0.83,-0.37 0.83,-0.83l0 0z" data-name="primary"/>
  </g>
 </g>
</svg>
