<?xml version="1.0" encoding="UTF-8"?>
<!DOCTYPE svg PUBLIC "-//W3C//DTD SVG 1.1//EN" "http://www.w3.org/Graphics/SVG/1.1/DTD/svg11.dtd">
<!-- Creator: CorelDRAW 2020 (64-Bit) -->
<svg xmlns="http://www.w3.org/2000/svg" xml:space="preserve" width="3.9844mm" height="3.9844mm" version="1.1" style="shape-rendering:geometricPrecision; text-rendering:geometricPrecision; image-rendering:optimizeQuality; fill-rule:evenodd; clip-rule:evenodd"
viewBox="0 0 30.21 30.21"
 xmlns:xlink="http://www.w3.org/1999/xlink"
 xmlns:xodm="http://www.corel.com/coreldraw/odm/2003">
 <defs>
  <style type="text/css">
   <![CDATA[
    .fil1 {fill:#FF0066}
    .fil0 {fill:white}
   ]]>
  </style>
 </defs>
 <g id="Layer_x0020_1">
  <metadata id="CorelCorpID_0Corel-Layer"/>
  <path class="fil0" d="M15.11 0c1.73,0 3.44,-0 5.16,0.08 1.35,0.06 2.62,0.27 3.88,0.76 1.22,0.47 2.24,1.13 3.16,2.06 0.93,0.93 1.59,1.95 2.06,3.16 0.49,1.26 0.7,2.53 0.76,3.88 0.08,1.73 0.08,3.44 0.08,5.16 0,1.73 0,3.44 -0.08,5.17 -0.06,1.35 -0.27,2.62 -0.76,3.88 -0.47,1.22 -1.13,2.24 -2.06,3.16 -0.93,0.93 -1.95,1.59 -3.16,2.06 -1.26,0.49 -2.53,0.7 -3.88,0.76 -1.73,0.08 -3.44,0.08 -5.16,0.08 -1.73,0 -3.44,0 -5.16,-0.08 -1.35,-0.06 -2.62,-0.27 -3.88,-0.76 -1.22,-0.47 -2.24,-1.13 -3.16,-2.06 -0.93,-0.93 -1.59,-1.95 -2.06,-3.16 -0.49,-1.26 -0.7,-2.53 -0.76,-3.88 -0.08,-1.73 -0.08,-3.44 -0.08,-5.17 0,-1.73 -0,-3.44 0.08,-5.16 0.06,-1.35 0.27,-2.62 0.76,-3.88 0.47,-1.22 1.13,-2.24 2.06,-3.16 0.93,-0.93 1.95,-1.59 3.16,-2.06 1.26,-0.49 2.53,-0.7 3.88,-0.76 1.73,-0.08 3.44,-0.08 5.16,-0.08z"/>
  <path class="fil1" d="M15.11 2.9c-3.32,0 -3.73,0.01 -5.03,0.07 -1.3,0.06 -2.19,0.27 -2.96,0.57 -0.8,0.31 -1.48,0.73 -2.16,1.41 -0.68,0.68 -1.1,1.36 -1.41,2.16 -0.3,0.78 -0.51,1.66 -0.57,2.96 -0.06,1.3 -0.07,1.72 -0.07,5.03 0,3.32 0.01,3.73 0.07,5.03 0.06,1.3 0.27,2.19 0.57,2.96 0.31,0.8 0.73,1.48 1.41,2.16 0.68,0.68 1.36,1.1 2.16,1.41 0.78,0.3 1.66,0.51 2.96,0.57 1.3,0.06 1.72,0.07 5.03,0.07 3.32,0 3.73,-0.01 5.03,-0.07 1.3,-0.06 2.19,-0.27 2.96,-0.57 0.8,-0.31 1.48,-0.73 2.16,-1.41 0.68,-0.68 1.1,-1.36 1.41,-2.16 0.3,-0.78 0.51,-1.66 0.57,-2.96 0.06,-1.3 0.07,-1.72 0.07,-5.03 0,-3.32 -0.01,-3.73 -0.07,-5.03 -0.06,-1.3 -0.27,-2.19 -0.57,-2.96 -0.31,-0.8 -0.73,-1.48 -1.41,-2.16 -0.68,-0.68 -1.36,-1.1 -2.16,-1.41 -0.78,-0.3 -1.66,-0.51 -2.96,-0.57 -1.3,-0.06 -1.72,-0.07 -5.03,-0.07zm-4.07 12.21c0,2.25 1.82,4.07 4.07,4.07 2.25,0 4.07,-1.82 4.07,-4.07 0,-2.25 -1.82,-4.07 -4.07,-4.07 -2.25,0 -4.07,1.82 -4.07,4.07zm-2.2 0c0,-3.46 2.81,-6.27 6.27,-6.27 3.46,0 6.27,2.81 6.27,6.27 0,3.46 -2.81,6.27 -6.27,6.27 -3.46,0 -6.27,-2.81 -6.27,-6.27zm12.79 -5.05c0.81,0 1.47,-0.66 1.47,-1.47 0,-0.81 -0.66,-1.47 -1.47,-1.47 -0.81,0 -1.47,0.66 -1.47,1.47 0,0.81 0.66,1.47 1.47,1.47z"/>
 </g>
</svg>
