<?xml version="1.0" encoding="UTF-8"?>
<!DOCTYPE svg PUBLIC "-//W3C//DTD SVG 1.1//EN" "http://www.w3.org/Graphics/SVG/1.1/DTD/svg11.dtd">
<!-- Creator: CorelDRAW 2020 (64-Bit) -->
<svg xmlns="http://www.w3.org/2000/svg" xml:space="preserve" width="3.9844mm" height="3.9844mm" version="1.1" style="shape-rendering:geometricPrecision; text-rendering:geometricPrecision; image-rendering:optimizeQuality; fill-rule:evenodd; clip-rule:evenodd"
viewBox="0 0 24.65 24.65"
 xmlns:xlink="http://www.w3.org/1999/xlink"
 xmlns:xodm="http://www.corel.com/coreldraw/odm/2003">
 <defs>
  <style type="text/css">
   <![CDATA[
    .fil0 {fill:white}
    .fil1 {fill:#0097D3;fill-rule:nonzero}
    .fil2 {fill:white;fill-rule:nonzero}
   ]]>
  </style>
 </defs>
 <g id="Layer_x0020_1">
  <metadata id="CorelCorpID_0Corel-Layer"/>
  <path class="fil0" d="M16.68 0c4.42,0 7.97,3.55 7.97,7.97l0 8.71c0,4.42 -3.55,7.97 -7.97,7.97l-8.71 0c-4.42,0 -7.97,-3.55 -7.97,-7.97l0 -8.71c0,-4.42 3.55,-7.97 7.97,-7.97l8.71 0z"/>
  <path class="fil1" d="M16.68 2.37l-8.71 0c-3.11,0 -5.6,2.49 -5.6,5.6l0 8.71c0,3.11 2.49,5.6 5.6,5.6l8.71 0c3.11,0 5.6,-2.49 5.6,-5.6l0 -8.71c0,-3.11 -2.49,-5.6 -5.6,-5.6z"/>
  <path class="fil2" d="M9.84 17.92c0,0.37 -0.25,0.62 -0.62,0.62l-2.49 0c-0.37,0 -0.62,-0.25 -0.62,-0.62l0 -7.47c0,-0.37 0.25,-0.62 0.62,-0.62l2.49 0c0.37,0 0.62,0.25 0.62,0.62l0 7.47zm-1.87 -8.71c-1.06,0 -1.87,-0.81 -1.87,-1.87 0,-1.06 0.81,-1.87 1.87,-1.87 1.06,0 1.87,0.81 1.87,1.87 0,1.06 -0.81,1.87 -1.87,1.87zm10.58 8.71c0,0.37 -0.25,0.62 -0.62,0.62l-1.87 0c-0.37,0 -0.62,-0.25 -0.62,-0.62l0 -2.18 0 -0.62 0 -1.24c0,-0.5 -0.44,-0.93 -0.93,-0.93 -0.5,0 -0.93,0.43 -0.93,0.93l0 1.24 0 0.62 0 2.18c0,0.37 -0.25,0.62 -0.62,0.62l-1.87 0c-0.37,0 -0.62,-0.25 -0.62,-0.62l0 -7.47c0,-0.37 0.25,-0.62 0.62,-0.62l2.49 0c0.19,0 0.31,0.06 0.44,0.19 0.37,-0.12 0.75,-0.19 1.12,-0.19 1.87,0 3.42,1.56 3.42,3.42l0 4.67z"/>
 </g>
</svg>
